solid Cheetah3Dfile
 facet normal 0.0000 1.0000 0.0000
   outer loop
     vertex -3.0000 0.0000 -3.0000
     vertex -3.0000 0.0000 3.0000
     vertex 3.0000 0.0000 3.0000
   endloop
 endfacet
 facet normal 0.0000 1.0000 0.0000
   outer loop
     vertex 3.0000 0.0000 3.0000
     vertex 3.0000 0.0000 -3.0000
     vertex -3.0000 0.0000 -3.0000
   endloop
 endfacet
 facet normal 0.9994 -0.0034 -0.0334
   outer loop
     vertex -2.0168 -0.0186 -0.0216
     vertex -2.0191 0.0616 -0.0986
     vertex -2.0163 -0.0159 -0.0069
   endloop
 endfacet
 facet normal -0.9996 -0.0022 0.0276
   outer loop
     vertex -2.9815 -0.0159 0.0219
     vertex -2.9842 0.0616 -0.0698
     vertex -2.9819 -0.0186 0.0072
   endloop
 endfacet
 facet normal 0.9995 -0.0003 -0.0308
   outer loop
     vertex -2.0191 0.0616 -0.0986
     vertex -2.0212 0.5464 -0.1715
     vertex -2.0163 -0.0159 -0.0069
   endloop
 endfacet
 facet normal -0.9996 -0.0001 0.0293
   outer loop
     vertex -2.9815 -0.0159 0.0219
     vertex -2.9864 0.5464 -0.1427
     vertex -2.9842 0.0616 -0.0698
   endloop
 endfacet
 facet normal 0.9996 0.0000 -0.0297
   outer loop
     vertex -2.0212 0.5464 -0.1715
     vertex -2.0123 0.5464 0.1283
     vertex -2.0163 -0.0159 -0.0069
   endloop
 endfacet
 facet normal -0.9995 0.0001 0.0300
   outer loop
     vertex -2.9815 -0.0159 0.0219
     vertex -2.9774 0.5464 0.1571
     vertex -2.9864 0.5464 -0.1427
   endloop
 endfacet
 facet normal 0.9996 0.0001 -0.0297
   outer loop
     vertex -2.0212 0.5464 -0.1715
     vertex -2.0145 1.0312 0.0553
     vertex -2.0123 0.5464 0.1283
   endloop
 endfacet
 facet normal -0.9995 -0.0000 0.0300
   outer loop
     vertex -2.9774 0.5464 0.1571
     vertex -2.9796 1.0312 0.0842
     vertex -2.9864 0.5464 -0.1427
   endloop
 endfacet
 facet normal 0.9996 -0.0000 -0.0295
   outer loop
     vertex -2.0212 0.5464 -0.1715
     vertex -2.0172 1.1087 -0.0363
     vertex -2.0145 1.0312 0.0553
   endloop
 endfacet
 facet normal -0.9995 -0.0002 0.0304
   outer loop
     vertex -2.9796 1.0312 0.0842
     vertex -2.9824 1.1087 -0.0075
     vertex -2.9864 0.5464 -0.1427
   endloop
 endfacet
 facet normal 0.9996 0.0022 -0.0276
   outer loop
     vertex -2.0172 1.1087 -0.0363
     vertex -2.0168 1.1114 -0.0216
     vertex -2.0145 1.0312 0.0553
   endloop
 endfacet
 facet normal -0.9994 0.0034 0.0334
   outer loop
     vertex -2.9796 1.0312 0.0842
     vertex -2.9819 1.1114 0.0072
     vertex -2.9824 1.1087 -0.0075
   endloop
 endfacet
 facet normal -0.0054 0.9836 -0.1805
   outer loop
     vertex -2.0172 1.1087 -0.0363
     vertex -2.9824 1.1087 -0.0075
     vertex -2.9819 1.1114 0.0072
   endloop
 endfacet
 facet normal -0.0054 0.9836 -0.1805
   outer loop
     vertex -2.9819 1.1114 0.0072
     vertex -2.0168 1.1114 -0.0216
     vertex -2.0172 1.1087 -0.0363
   endloop
 endfacet
 facet normal -0.0290 0.2339 -0.9718
   outer loop
     vertex -2.0212 0.5464 -0.1715
     vertex -2.9864 0.5464 -0.1427
     vertex -2.9824 1.1087 -0.0075
   endloop
 endfacet
 facet normal -0.0290 0.2339 -0.9718
   outer loop
     vertex -2.9824 1.1087 -0.0075
     vertex -2.0172 1.1087 -0.0363
     vertex -2.0212 0.5464 -0.1715
   endloop
 endfacet
 facet normal -0.0295 -0.1488 -0.9884
   outer loop
     vertex -2.0191 0.0616 -0.0986
     vertex -2.9842 0.0616 -0.0698
     vertex -2.9864 0.5464 -0.1427
   endloop
 endfacet
 facet normal -0.0295 -0.1488 -0.9884
   outer loop
     vertex -2.9864 0.5464 -0.1427
     vertex -2.0212 0.5464 -0.1715
     vertex -2.0191 0.0616 -0.0986
   endloop
 endfacet
 facet normal -0.0215 -0.6927 -0.7209
   outer loop
     vertex -2.0168 -0.0186 -0.0216
     vertex -2.9819 -0.0186 0.0072
     vertex -2.9842 0.0616 -0.0698
   endloop
 endfacet
 facet normal -0.0215 -0.6927 -0.7209
   outer loop
     vertex -2.9842 0.0616 -0.0698
     vertex -2.0191 0.0616 -0.0986
     vertex -2.0168 -0.0186 -0.0216
   endloop
 endfacet
 facet normal 0.0054 -0.9836 0.1805
   outer loop
     vertex -2.0163 -0.0159 -0.0069
     vertex -2.9815 -0.0159 0.0219
     vertex -2.9819 -0.0186 0.0072
   endloop
 endfacet
 facet normal 0.0054 -0.9836 0.1805
   outer loop
     vertex -2.9819 -0.0186 0.0072
     vertex -2.0168 -0.0186 -0.0216
     vertex -2.0163 -0.0159 -0.0069
   endloop
 endfacet
 facet normal 0.0290 -0.2339 0.9718
   outer loop
     vertex -2.0123 0.5464 0.1283
     vertex -2.9774 0.5464 0.1571
     vertex -2.9815 -0.0159 0.0219
   endloop
 endfacet
 facet normal 0.0290 -0.2339 0.9718
   outer loop
     vertex -2.9815 -0.0159 0.0219
     vertex -2.0163 -0.0159 -0.0069
     vertex -2.0123 0.5464 0.1283
   endloop
 endfacet
 facet normal 0.0296 0.1488 0.9884
   outer loop
     vertex -2.0145 1.0312 0.0553
     vertex -2.9796 1.0312 0.0842
     vertex -2.9774 0.5464 0.1571
   endloop
 endfacet
 facet normal 0.0295 0.1490 0.9884
   outer loop
     vertex -2.9774 0.5464 0.1571
     vertex -2.0123 0.5464 0.1283
     vertex -2.0145 1.0312 0.0553
   endloop
 endfacet
 facet normal 0.0215 0.6927 0.7209
   outer loop
     vertex -2.0168 1.1114 -0.0216
     vertex -2.9819 1.1114 0.0072
     vertex -2.9796 1.0312 0.0842
   endloop
 endfacet
 facet normal 0.0216 0.6923 0.7213
   outer loop
     vertex -2.9796 1.0312 0.0842
     vertex -2.0145 1.0312 0.0553
     vertex -2.0168 1.1114 -0.0216
   endloop
 endfacet
 facet normal 0.0139 -0.0016 -0.9999
   outer loop
     vertex 2.0024 -0.0186 2.0096
     vertex 1.9254 0.0616 2.0084
     vertex 2.0171 -0.0159 2.0098
   endloop
 endfacet
 facet normal -0.0138 0.0017 0.9999
   outer loop
     vertex 2.0027 -0.0159 2.9605
     vertex 1.9110 0.0616 2.9591
     vertex 1.9879 -0.0186 2.9603
   endloop
 endfacet
 facet normal 0.0153 0.0000 -0.9999
   outer loop
     vertex 1.9254 0.0616 2.0084
     vertex 1.8524 0.5464 2.0073
     vertex 2.0171 -0.0159 2.0098
   endloop
 endfacet
 facet normal -0.0153 -0.0000 0.9999
   outer loop
     vertex 2.0027 -0.0159 2.9605
     vertex 1.8380 0.5464 2.9580
     vertex 1.9110 0.0616 2.9591
   endloop
 endfacet
 facet normal 0.0150 -0.0001 -0.9999
   outer loop
     vertex 1.8524 0.5464 2.0073
     vertex 2.1523 0.5464 2.0118
     vertex 2.0171 -0.0159 2.0098
   endloop
 endfacet
 facet normal -0.0153 -0.0000 0.9999
   outer loop
     vertex 2.0027 -0.0159 2.9605
     vertex 2.1379 0.5464 2.9626
     vertex 1.8380 0.5464 2.9580
   endloop
 endfacet
 facet normal 0.0150 -0.0000 -0.9999
   outer loop
     vertex 1.8524 0.5464 2.0073
     vertex 2.0793 1.0312 2.0107
     vertex 2.1523 0.5464 2.0118
   endloop
 endfacet
 facet normal -0.0153 -0.0000 0.9999
   outer loop
     vertex 2.1379 0.5464 2.9626
     vertex 2.0649 1.0312 2.9615
     vertex 1.8380 0.5464 2.9580
   endloop
 endfacet
 facet normal 0.0152 -0.0001 -0.9999
   outer loop
     vertex 1.8524 0.5464 2.0073
     vertex 1.9876 1.1087 2.0093
     vertex 2.0793 1.0312 2.0107
   endloop
 endfacet
 facet normal -0.0153 -0.0001 0.9999
   outer loop
     vertex 2.0649 1.0312 2.9615
     vertex 1.9732 1.1087 2.9601
     vertex 1.8380 0.5464 2.9580
   endloop
 endfacet
 facet normal 0.0194 0.0049 -0.9998
   outer loop
     vertex 1.9876 1.1087 2.0093
     vertex 2.0024 1.1114 2.0096
     vertex 2.0793 1.0312 2.0107
   endloop
 endfacet
 facet normal -0.0139 0.0016 0.9999
   outer loop
     vertex 2.0649 1.0312 2.9615
     vertex 1.9879 1.1114 2.9603
     vertex 1.9732 1.1087 2.9601
   endloop
 endfacet
 facet normal -0.1806 0.9836 -0.0027
   outer loop
     vertex 1.9876 1.1087 2.0093
     vertex 1.9732 1.1087 2.9601
     vertex 1.9879 1.1114 2.9603
   endloop
 endfacet
 facet normal -0.1794 0.9838 -0.0027
   outer loop
     vertex 1.9879 1.1114 2.9603
     vertex 2.0024 1.1114 2.0096
     vertex 1.9876 1.1087 2.0093
   endloop
 endfacet
 facet normal -0.9722 0.2338 -0.0147
   outer loop
     vertex 1.8524 0.5464 2.0073
     vertex 1.8380 0.5464 2.9580
     vertex 1.9732 1.1087 2.9601
   endloop
 endfacet
 facet normal -0.9722 0.2338 -0.0147
   outer loop
     vertex 1.9732 1.1087 2.9601
     vertex 1.9876 1.1087 2.0093
     vertex 1.8524 0.5464 2.0073
   endloop
 endfacet
 facet normal -0.9887 -0.1489 -0.0150
   outer loop
     vertex 1.9254 0.0616 2.0084
     vertex 1.9110 0.0616 2.9591
     vertex 1.8380 0.5464 2.9580
   endloop
 endfacet
 facet normal -0.9887 -0.1489 -0.0150
   outer loop
     vertex 1.8380 0.5464 2.9580
     vertex 1.8524 0.5464 2.0073
     vertex 1.9254 0.0616 2.0084
   endloop
 endfacet
 facet normal -0.7217 -0.6921 -0.0110
   outer loop
     vertex 2.0024 -0.0186 2.0096
     vertex 1.9879 -0.0186 2.9603
     vertex 1.9110 0.0616 2.9591
   endloop
 endfacet
 facet normal -0.7212 -0.6926 -0.0109
   outer loop
     vertex 1.9110 0.0616 2.9591
     vertex 1.9254 0.0616 2.0084
     vertex 2.0024 -0.0186 2.0096
   endloop
 endfacet
 facet normal 0.1794 -0.9838 0.0027
   outer loop
     vertex 2.0171 -0.0159 2.0098
     vertex 2.0027 -0.0159 2.9605
     vertex 1.9879 -0.0186 2.9603
   endloop
 endfacet
 facet normal 0.1806 -0.9836 0.0028
   outer loop
     vertex 1.9879 -0.0186 2.9603
     vertex 2.0024 -0.0186 2.0096
     vertex 2.0171 -0.0159 2.0098
   endloop
 endfacet
 facet normal 0.9722 -0.2338 0.0147
   outer loop
     vertex 2.1523 0.5464 2.0118
     vertex 2.1379 0.5464 2.9626
     vertex 2.0027 -0.0159 2.9605
   endloop
 endfacet
 facet normal 0.9722 -0.2338 0.0147
   outer loop
     vertex 2.0027 -0.0159 2.9605
     vertex 2.0171 -0.0159 2.0098
     vertex 2.1523 0.5464 2.0118
   endloop
 endfacet
 facet normal 0.9887 0.1489 0.0150
   outer loop
     vertex 2.0793 1.0312 2.0107
     vertex 2.0649 1.0312 2.9615
     vertex 2.1379 0.5464 2.9626
   endloop
 endfacet
 facet normal 0.9887 0.1489 0.0150
   outer loop
     vertex 2.1379 0.5464 2.9626
     vertex 2.1523 0.5464 2.0118
     vertex 2.0793 1.0312 2.0107
   endloop
 endfacet
 facet normal 0.7212 0.6926 0.0110
   outer loop
     vertex 2.0024 1.1114 2.0096
     vertex 1.9879 1.1114 2.9603
     vertex 2.0649 1.0312 2.9615
   endloop
 endfacet
 facet normal 0.7217 0.6921 0.0109
   outer loop
     vertex 2.0649 1.0312 2.9615
     vertex 2.0793 1.0312 2.0107
     vertex 2.0024 1.1114 2.0096
   endloop
 endfacet
 facet normal 0.0000 -0.0000 1.0000
   outer loop
     vertex 0.0000 -0.0186 1.0012
     vertex 0.0770 0.0616 1.0012
     vertex -0.0147 -0.0159 1.0012
   endloop
 endfacet
 facet normal -1.0000 0.0000 -0.0000
   outer loop
     vertex -0.9940 -0.0159 -0.9721
     vertex -0.9940 0.0616 -1.0638
     vertex -0.9940 -0.0186 -0.9868
   endloop
 endfacet
 facet normal 0.0000 -0.0000 1.0000
   outer loop
     vertex 0.0770 0.0616 1.0012
     vertex 0.1500 0.5464 1.0012
     vertex -0.0147 -0.0159 1.0012
   endloop
 endfacet
 facet normal -1.0000 0.0000 0.0000
   outer loop
     vertex -0.9940 -0.0159 -0.9721
     vertex -0.9940 0.5464 -1.1368
     vertex -0.9940 0.0616 -1.0638
   endloop
 endfacet
 facet normal 0.0000 0.0000 1.0000
   outer loop
     vertex 0.1500 0.5464 1.0012
     vertex -0.1500 0.5464 1.0012
     vertex -0.0147 -0.0159 1.0012
   endloop
 endfacet
 facet normal -1.0000 0.0000 0.0000
   outer loop
     vertex -0.9940 -0.0159 -0.9721
     vertex -0.9940 0.5464 -0.8368
     vertex -0.9940 0.5464 -1.1368
   endloop
 endfacet
 facet normal 0.0000 0.0000 1.0000
   outer loop
     vertex 0.1500 0.5464 1.0012
     vertex -0.0770 1.0312 1.0012
     vertex -0.1500 0.5464 1.0012
   endloop
 endfacet
 facet normal -1.0000 0.0000 0.0000
   outer loop
     vertex -0.9940 0.5464 -0.8368
     vertex -0.9940 1.0312 -0.9098
     vertex -0.9940 0.5464 -1.1368
   endloop
 endfacet
 facet normal 0.0000 0.0000 1.0000
   outer loop
     vertex 0.1500 0.5464 1.0012
     vertex 0.0147 1.1087 1.0012
     vertex -0.0770 1.0312 1.0012
   endloop
 endfacet
 facet normal -1.0000 0.0000 -0.0000
   outer loop
     vertex -0.9940 1.0312 -0.9098
     vertex -0.9940 1.1087 -1.0015
     vertex -0.9940 0.5464 -1.1368
   endloop
 endfacet
 facet normal 0.0000 0.0000 1.0000
   outer loop
     vertex 0.0147 1.1087 1.0012
     vertex 0.0000 1.1114 1.0012
     vertex -0.0770 1.0312 1.0012
   endloop
 endfacet
 facet normal -1.0000 0.0000 0.0000
   outer loop
     vertex -0.9940 1.0312 -0.9098
     vertex -0.9940 1.1114 -0.9868
     vertex -0.9940 1.1087 -1.0015
   endloop
 endfacet
 facet normal 0.2508 0.9680 -0.0005
   outer loop
     vertex 0.0147 1.1087 1.0012
     vertex 0.0104 1.1087 -0.9972
     vertex 0.0000 1.1114 -0.9868
   endloop
 endfacet
 facet normal 0.1806 0.9835 -0.0000
   outer loop
     vertex 0.0000 1.1114 -0.9868
     vertex 0.0000 1.1114 1.0012
     vertex 0.0147 1.1087 1.0012
   endloop
 endfacet
 facet normal 0.9850 0.1712 -0.0207
   outer loop
     vertex 0.1500 0.5464 1.0012
     vertex 0.1061 0.5464 -1.0928
     vertex 0.0104 1.1087 -0.9972
   endloop
 endfacet
 facet normal 0.9722 0.2339 -0.0021
   outer loop
     vertex 0.0104 1.1087 -0.9972
     vertex 0.0147 1.1087 1.0012
     vertex 0.1500 0.5464 1.0012
   endloop
 endfacet
 facet normal 0.9942 -0.1072 -0.0110
   outer loop
     vertex 0.0770 0.0616 1.0012
     vertex 0.0544 0.0616 -1.0412
     vertex 0.1061 0.5464 -1.0928
   endloop
 endfacet
 facet normal 0.9886 -0.1489 -0.0207
   outer loop
     vertex 0.1061 0.5464 -1.0928
     vertex 0.1500 0.5464 1.0012
     vertex 0.0770 0.0616 1.0012
   endloop
 endfacet
 facet normal 0.8276 -0.5614 0.0000
   outer loop
     vertex 0.0000 -0.0186 1.0012
     vertex 0.0000 -0.0186 -0.9868
     vertex 0.0544 0.0616 -1.0412
   endloop
 endfacet
 facet normal 0.7213 -0.6925 -0.0080
   outer loop
     vertex 0.0544 0.0616 -1.0412
     vertex 0.0770 0.0616 1.0012
     vertex 0.0000 -0.0186 1.0012
   endloop
 endfacet
 facet normal -0.2518 -0.9678 -0.0005
   outer loop
     vertex -0.0147 -0.0159 1.0012
     vertex -0.0104 -0.0159 -0.9764
     vertex 0.0000 -0.0186 -0.9868
   endloop
 endfacet
 facet normal -0.1807 -0.9835 0.0000
   outer loop
     vertex 0.0000 -0.0186 -0.9868
     vertex 0.0000 -0.0186 1.0012
     vertex -0.0147 -0.0159 1.0012
   endloop
 endfacet
 facet normal -0.9862 -0.1639 -0.0230
   outer loop
     vertex -0.1500 0.5464 1.0012
     vertex -0.1061 0.5464 -0.8807
     vertex -0.0104 -0.0159 -0.9764
   endloop
 endfacet
 facet normal -0.9722 -0.2339 -0.0021
   outer loop
     vertex -0.0104 -0.0159 -0.9764
     vertex -0.0147 -0.0159 1.0012
     vertex -0.1500 0.5464 1.0012
   endloop
 endfacet
 facet normal -0.9944 0.1048 -0.0116
   outer loop
     vertex -0.0770 1.0312 1.0012
     vertex -0.0544 1.0312 -0.9323
     vertex -0.1061 0.5464 -0.8807
   endloop
 endfacet
 facet normal -0.9886 0.1489 -0.0231
   outer loop
     vertex -0.1061 0.5464 -0.8807
     vertex -0.1500 0.5464 1.0012
     vertex -0.0770 1.0312 1.0012
   endloop
 endfacet
 facet normal -0.8276 0.5614 0.0000
   outer loop
     vertex 0.0000 1.1114 1.0012
     vertex 0.0000 1.1114 -0.9868
     vertex -0.0544 1.0312 -0.9323
   endloop
 endfacet
 facet normal -0.7213 0.6925 -0.0084
   outer loop
     vertex -0.0544 1.0312 -0.9323
     vertex -0.0770 1.0312 1.0012
     vertex 0.0000 1.1114 1.0012
   endloop
 endfacet
 facet normal 0.0008 0.9835 -0.1806
   outer loop
     vertex 0.0104 1.1087 -0.9972
     vertex -0.9940 1.1087 -1.0015
     vertex -0.9940 1.1114 -0.9868
   endloop
 endfacet
 facet normal 0.0000 0.9679 -0.2513
   outer loop
     vertex -0.9940 1.1114 -0.9868
     vertex 0.0000 1.1114 -0.9868
     vertex 0.0104 1.1087 -0.9972
   endloop
 endfacet
 facet normal 0.0389 0.2338 -0.9715
   outer loop
     vertex 0.1061 0.5464 -1.0928
     vertex -0.9940 0.5464 -1.1368
     vertex -0.9940 1.1087 -1.0015
   endloop
 endfacet
 facet normal 0.0042 0.1683 -0.9857
   outer loop
     vertex -0.9940 1.1087 -1.0015
     vertex 0.0104 1.1087 -0.9972
     vertex 0.1061 0.5464 -1.0928
   endloop
 endfacet
 facet normal 0.0213 -0.1489 -0.9886
   outer loop
     vertex 0.0544 0.0616 -1.0412
     vertex -0.9940 0.0616 -1.0638
     vertex -0.9940 0.5464 -1.1368
   endloop
 endfacet
 facet normal 0.0397 -0.1099 -0.9931
   outer loop
     vertex -0.9940 0.5464 -1.1368
     vertex 0.1061 0.5464 -1.0928
     vertex 0.0544 0.0616 -1.0412
   endloop
 endfacet
 facet normal -0.0000 -0.6926 -0.7214
   outer loop
     vertex 0.0000 -0.0186 -0.9868
     vertex -0.9940 -0.0186 -0.9868
     vertex -0.9940 0.0616 -1.0638
   endloop
 endfacet
 facet normal 0.0177 -0.5695 -0.8218
   outer loop
     vertex -0.9940 0.0616 -1.0638
     vertex 0.0544 0.0616 -1.0412
     vertex 0.0000 -0.0186 -0.9868
   endloop
 endfacet
 facet normal 0.0008 -0.9835 0.1807
   outer loop
     vertex -0.0104 -0.0159 -0.9764
     vertex -0.9940 -0.0159 -0.9721
     vertex -0.9940 -0.0186 -0.9868
   endloop
 endfacet
 facet normal 0.0000 -0.9679 0.2513
   outer loop
     vertex -0.9940 -0.0186 -0.9868
     vertex 0.0000 -0.0186 -0.9868
     vertex -0.0104 -0.0159 -0.9764
   endloop
 endfacet
 facet normal 0.0480 -0.2337 0.9711
   outer loop
     vertex -0.1061 0.5464 -0.8807
     vertex -0.9940 0.5464 -0.8368
     vertex -0.9940 -0.0159 -0.9721
   endloop
 endfacet
 facet normal 0.0043 -0.1671 0.9859
   outer loop
     vertex -0.9940 -0.0159 -0.9721
     vertex -0.0104 -0.0159 -0.9764
     vertex -0.1061 0.5464 -0.8807
   endloop
 endfacet
 facet normal 0.0237 0.1489 0.9886
   outer loop
     vertex -0.0544 1.0312 -0.9323
     vertex -0.9940 1.0312 -0.9098
     vertex -0.9940 0.5464 -0.8368
   endloop
 endfacet
 facet normal 0.0491 0.1005 0.9937
   outer loop
     vertex -0.9940 0.5464 -0.8368
     vertex -0.1061 0.5464 -0.8807
     vertex -0.0544 1.0312 -0.9323
   endloop
 endfacet
 facet normal 0.0000 0.6926 0.7214
   outer loop
     vertex 0.0000 1.1114 -0.9868
     vertex -0.9940 1.1114 -0.9868
     vertex -0.9940 1.0312 -0.9098
   endloop
 endfacet
 facet normal 0.0200 0.5527 0.8332
   outer loop
     vertex -0.9940 1.0312 -0.9098
     vertex -0.0544 1.0312 -0.9323
     vertex 0.0000 1.1114 -0.9868
   endloop
 endfacet
 facet normal -0.0137 0.0006 -0.9999
   outer loop
     vertex 0.9940 -0.0186 -1.0012
     vertex 0.9170 0.0616 -1.0001
     vertex 1.0087 -0.0159 -1.0014
   endloop
 endfacet
 facet normal 0.0137 -0.0006 0.9999
   outer loop
     vertex 1.0375 -0.0159 0.9866
     vertex 0.9458 0.0616 0.9879
     vertex 1.0228 -0.0186 0.9868
   endloop
 endfacet
 facet normal -0.0140 0.0002 -0.9999
   outer loop
     vertex 0.9170 0.0616 -1.0001
     vertex 0.8440 0.5464 -0.9990
     vertex 1.0087 -0.0159 -1.0014
   endloop
 endfacet
 facet normal 0.0142 0.0001 0.9999
   outer loop
     vertex 1.0375 -0.0159 0.9866
     vertex 0.8728 0.5464 0.9889
     vertex 0.9458 0.0616 0.9879
   endloop
 endfacet
 facet normal -0.0147 -0.0000 -0.9999
   outer loop
     vertex 0.8440 0.5464 -0.9990
     vertex 1.1440 0.5464 -1.0034
     vertex 1.0087 -0.0159 -1.0014
   endloop
 endfacet
 facet normal 0.0143 0.0001 0.9999
   outer loop
     vertex 1.0375 -0.0159 0.9866
     vertex 1.1728 0.5464 0.9846
     vertex 0.8728 0.5464 0.9889
   endloop
 endfacet
 facet normal -0.0147 0.0001 -0.9999
   outer loop
     vertex 0.8440 0.5464 -0.9990
     vertex 1.0710 1.0312 -1.0023
     vertex 1.1440 0.5464 -1.0034
   endloop
 endfacet
 facet normal 0.0143 -0.0001 0.9999
   outer loop
     vertex 1.1728 0.5464 0.9846
     vertex 1.0998 1.0312 0.9857
     vertex 0.8728 0.5464 0.9889
   endloop
 endfacet
 facet normal -0.0143 -0.0001 -0.9999
   outer loop
     vertex 0.8440 0.5464 -0.9990
     vertex 0.9793 1.1087 -1.0010
     vertex 1.0710 1.0312 -1.0023
   endloop
 endfacet
 facet normal 0.0142 -0.0000 0.9999
   outer loop
     vertex 1.0998 1.0312 0.9857
     vertex 1.0081 1.1087 0.9870
     vertex 0.8728 0.5464 0.9889
   endloop
 endfacet
 facet normal -0.0137 0.0006 -0.9999
   outer loop
     vertex 0.9793 1.1087 -1.0010
     vertex 0.9940 1.1114 -1.0012
     vertex 1.0710 1.0312 -1.0023
   endloop
 endfacet
 facet normal 0.0137 -0.0006 0.9999
   outer loop
     vertex 1.0998 1.0312 0.9857
     vertex 1.0228 1.1114 0.9868
     vertex 1.0081 1.1087 0.9870
   endloop
 endfacet
 facet normal -0.1806 0.9836 0.0026
   outer loop
     vertex 0.9793 1.1087 -1.0010
     vertex 1.0081 1.1087 0.9870
     vertex 1.0228 1.1114 0.9868
   endloop
 endfacet
 facet normal -0.1806 0.9836 0.0026
   outer loop
     vertex 1.0228 1.1114 0.9868
     vertex 0.9940 1.1114 -1.0012
     vertex 0.9793 1.1087 -1.0010
   endloop
 endfacet
 facet normal -0.9721 0.2340 0.0141
   outer loop
     vertex 0.8440 0.5464 -0.9990
     vertex 0.8728 0.5464 0.9889
     vertex 1.0081 1.1087 0.9870
   endloop
 endfacet
 facet normal -0.9721 0.2340 0.0141
   outer loop
     vertex 1.0081 1.1087 0.9870
     vertex 0.9793 1.1087 -1.0010
     vertex 0.8440 0.5464 -0.9990
   endloop
 endfacet
 facet normal -0.9887 -0.1489 0.0143
   outer loop
     vertex 0.9170 0.0616 -1.0001
     vertex 0.9458 0.0616 0.9879
     vertex 0.8728 0.5464 0.9889
   endloop
 endfacet
 facet normal -0.9887 -0.1489 0.0143
   outer loop
     vertex 0.8728 0.5464 0.9889
     vertex 0.8440 0.5464 -0.9990
     vertex 0.9170 0.0616 -1.0001
   endloop
 endfacet
 facet normal -0.7212 -0.6926 0.0104
   outer loop
     vertex 0.9940 -0.0186 -1.0012
     vertex 1.0228 -0.0186 0.9868
     vertex 0.9458 0.0616 0.9879
   endloop
 endfacet
 facet normal -0.7212 -0.6926 0.0104
   outer loop
     vertex 0.9458 0.0616 0.9879
     vertex 0.9170 0.0616 -1.0001
     vertex 0.9940 -0.0186 -1.0012
   endloop
 endfacet
 facet normal 0.1806 -0.9836 -0.0026
   outer loop
     vertex 1.0087 -0.0159 -1.0014
     vertex 1.0375 -0.0159 0.9866
     vertex 1.0228 -0.0186 0.9868
   endloop
 endfacet
 facet normal 0.1806 -0.9836 -0.0026
   outer loop
     vertex 1.0228 -0.0186 0.9868
     vertex 0.9940 -0.0186 -1.0012
     vertex 1.0087 -0.0159 -1.0014
   endloop
 endfacet
 facet normal 0.9721 -0.2340 -0.0141
   outer loop
     vertex 1.1440 0.5464 -1.0034
     vertex 1.1728 0.5464 0.9846
     vertex 1.0375 -0.0159 0.9866
   endloop
 endfacet
 facet normal 0.9721 -0.2340 -0.0141
   outer loop
     vertex 1.0375 -0.0159 0.9866
     vertex 1.0087 -0.0159 -1.0014
     vertex 1.1440 0.5464 -1.0034
   endloop
 endfacet
 facet normal 0.9887 0.1489 -0.0143
   outer loop
     vertex 1.0710 1.0312 -1.0023
     vertex 1.0998 1.0312 0.9857
     vertex 1.1728 0.5464 0.9846
   endloop
 endfacet
 facet normal 0.9887 0.1489 -0.0143
   outer loop
     vertex 1.1728 0.5464 0.9846
     vertex 1.1440 0.5464 -1.0034
     vertex 1.0710 1.0312 -1.0023
   endloop
 endfacet
 facet normal 0.7212 0.6926 -0.0104
   outer loop
     vertex 0.9940 1.1114 -1.0012
     vertex 1.0228 1.1114 0.9868
     vertex 1.0998 1.0312 0.9857
   endloop
 endfacet
 facet normal 0.7212 0.6926 -0.0104
   outer loop
     vertex 1.0998 1.0312 0.9857
     vertex 1.0710 1.0312 -1.0023
     vertex 0.9940 1.1114 -1.0012
   endloop
 endfacet
 facet normal 0.0000 -0.0000 1.0000
   outer loop
     vertex -1.9879 -0.0186 -1.0012
     vertex -1.9110 0.0616 -1.0012
     vertex -2.0027 -0.0159 -1.0012
   endloop
 endfacet
 facet normal -1.0000 0.0000 -0.0000
   outer loop
     vertex 1.0228 -0.0159 1.0159
     vertex 1.0228 0.0616 0.9242
     vertex 1.0228 -0.0186 1.0012
   endloop
 endfacet
 facet normal 0.0000 -0.0000 1.0000
   outer loop
     vertex -1.9110 0.0616 -1.0012
     vertex -1.8379 0.5464 -1.0012
     vertex -2.0027 -0.0159 -1.0012
   endloop
 endfacet
 facet normal -1.0000 0.0000 0.0000
   outer loop
     vertex 1.0228 -0.0159 1.0159
     vertex 1.0228 0.5464 0.8512
     vertex 1.0228 0.0616 0.9242
   endloop
 endfacet
 facet normal 0.0000 0.0000 1.0000
   outer loop
     vertex -1.8379 0.5464 -1.0012
     vertex -2.1379 0.5464 -1.0012
     vertex -2.0027 -0.0159 -1.0012
   endloop
 endfacet
 facet normal -1.0000 0.0000 0.0000
   outer loop
     vertex 1.0228 -0.0159 1.0159
     vertex 1.0228 0.5464 1.1512
     vertex 1.0228 0.5464 0.8512
   endloop
 endfacet
 facet normal 0.0000 0.0000 1.0000
   outer loop
     vertex -1.8379 0.5464 -1.0012
     vertex -2.0649 1.0312 -1.0012
     vertex -2.1379 0.5464 -1.0012
   endloop
 endfacet
 facet normal -1.0000 0.0000 0.0000
   outer loop
     vertex 1.0228 0.5464 1.1512
     vertex 1.0228 1.0312 1.0782
     vertex 1.0228 0.5464 0.8512
   endloop
 endfacet
 facet normal 0.0000 0.0000 1.0000
   outer loop
     vertex -1.8379 0.5464 -1.0012
     vertex -1.9732 1.1087 -1.0012
     vertex -2.0649 1.0312 -1.0012
   endloop
 endfacet
 facet normal -1.0000 0.0000 -0.0000
   outer loop
     vertex 1.0228 1.0312 1.0782
     vertex 1.0228 1.1087 0.9865
     vertex 1.0228 0.5464 0.8512
   endloop
 endfacet
 facet normal 0.0000 0.0000 1.0000
   outer loop
     vertex -1.9732 1.1087 -1.0012
     vertex -1.9879 1.1114 -1.0012
     vertex -2.0649 1.0312 -1.0012
   endloop
 endfacet
 facet normal -1.0000 0.0000 0.0000
   outer loop
     vertex 1.0228 1.0312 1.0782
     vertex 1.0228 1.1114 1.0012
     vertex 1.0228 1.1087 0.9865
   endloop
 endfacet
 facet normal 0.2523 0.9676 -0.0011
   outer loop
     vertex -1.9732 1.1087 -1.0012
     vertex -1.9775 1.1087 -1.9704
     vertex -1.9879 1.1114 -1.9807
   endloop
 endfacet
 facet normal 0.1806 0.9835 -0.0000
   outer loop
     vertex -1.9879 1.1114 -1.9807
     vertex -1.9879 1.1114 -1.0012
     vertex -1.9732 1.1087 -1.0012
   endloop
 endfacet
 facet normal 0.9859 0.1596 -0.0494
   outer loop
     vertex -1.8379 0.5464 -1.0012
     vertex -1.8817 0.5464 -1.8749
     vertex -1.9775 1.1087 -1.9704
   endloop
 endfacet
 facet normal 0.9722 0.2339 -0.0043
   outer loop
     vertex -1.9775 1.1087 -1.9704
     vertex -1.9732 1.1087 -1.0012
     vertex -1.8379 0.5464 -1.0012
   endloop
 endfacet
 facet normal 0.9943 -0.1035 -0.0241
   outer loop
     vertex -1.9110 0.0616 -1.0012
     vertex -1.9334 0.0616 -1.9264
     vertex -1.8817 0.5464 -1.8749
   endloop
 endfacet
 facet normal 0.9876 -0.1489 -0.0495
   outer loop
     vertex -1.8817 0.5464 -1.8749
     vertex -1.8379 0.5464 -1.0012
     vertex -1.9110 0.0616 -1.0012
   endloop
 endfacet
 facet normal 0.8271 -0.5621 0.0000
   outer loop
     vertex -1.9879 -0.0186 -1.0012
     vertex -1.9879 -0.0186 -1.9807
     vertex -1.9334 0.0616 -1.9264
   endloop
 endfacet
 facet normal 0.7217 -0.6920 -0.0175
   outer loop
     vertex -1.9334 0.0616 -1.9264
     vertex -1.9110 0.0616 -1.0012
     vertex -1.9879 -0.0186 -1.0012
   endloop
 endfacet
 facet normal -0.2480 -0.9687 -0.0011
   outer loop
     vertex -2.0027 -0.0159 -1.0012
     vertex -1.9984 -0.0159 -1.9911
     vertex -1.9879 -0.0186 -1.9807
   endloop
 endfacet
 facet normal -0.1795 -0.9838 0.0000
   outer loop
     vertex -1.9879 -0.0186 -1.9807
     vertex -1.9879 -0.0186 -1.0012
     vertex -2.0027 -0.0159 -1.0012
   endloop
 endfacet
 facet normal -0.9839 -0.1744 -0.0396
   outer loop
     vertex -2.1379 0.5464 -1.0012
     vertex -2.0942 0.5464 -2.0866
     vertex -1.9984 -0.0159 -1.9911
   endloop
 endfacet
 facet normal -0.9723 -0.2338 -0.0042
   outer loop
     vertex -1.9984 -0.0159 -1.9911
     vertex -2.0027 -0.0159 -1.0012
     vertex -2.1379 0.5464 -1.0012
   endloop
 endfacet
 facet normal -0.9939 0.1083 -0.0215
   outer loop
     vertex -2.0649 1.0312 -1.0012
     vertex -2.0425 1.0312 -2.0351
     vertex -2.0942 0.5464 -2.0866
   endloop
 endfacet
 facet normal -0.9881 0.1488 -0.0398
   outer loop
     vertex -2.0942 0.5464 -2.0866
     vertex -2.1379 0.5464 -1.0012
     vertex -2.0649 1.0312 -1.0012
   endloop
 endfacet
 facet normal -0.8266 0.5628 0.0000
   outer loop
     vertex -1.9879 1.1114 -1.0012
     vertex -1.9879 1.1114 -1.9807
     vertex -2.0425 1.0312 -2.0351
   endloop
 endfacet
 facet normal -0.7213 0.6925 -0.0156
   outer loop
     vertex -2.0425 1.0312 -2.0351
     vertex -2.0649 1.0312 -1.0012
     vertex -1.9879 1.1114 -1.0012
   endloop
 endfacet
 facet normal 0.0009 0.9683 0.2499
   outer loop
     vertex -1.9775 1.1087 -1.9704
     vertex 1.9920 1.1087 -1.9847
     vertex 2.0024 1.1114 -1.9952
   endloop
 endfacet
 facet normal 0.0009 0.9675 0.2527
   outer loop
     vertex 2.0024 1.1114 -1.9952
     vertex -1.9879 1.1114 -1.9807
     vertex -1.9775 1.1087 -1.9704
   endloop
 endfacet
 facet normal 0.0037 0.1673 0.9859
   outer loop
     vertex -1.8817 0.5464 -1.8749
     vertex 1.8965 0.5464 -1.8889
     vertex 1.9920 1.1087 -1.9847
   endloop
 endfacet
 facet normal 0.0036 0.1680 0.9858
   outer loop
     vertex 1.9920 1.1087 -1.9847
     vertex -1.9775 1.1087 -1.9704
     vertex -1.8817 0.5464 -1.8749
   endloop
 endfacet
 facet normal 0.0036 -0.1057 0.9944
   outer loop
     vertex -1.9334 0.0616 -1.9264
     vertex 1.9480 0.0616 -1.9406
     vertex 1.8965 0.5464 -1.8889
   endloop
 endfacet
 facet normal 0.0037 -0.1060 0.9944
   outer loop
     vertex 1.8965 0.5464 -1.8889
     vertex -1.8817 0.5464 -1.8749
     vertex -1.9334 0.0616 -1.9264
   endloop
 endfacet
 facet normal 0.0030 -0.5614 0.8276
   outer loop
     vertex -1.9879 -0.0186 -1.9807
     vertex 2.0024 -0.0186 -1.9952
     vertex 1.9480 0.0616 -1.9406
   endloop
 endfacet
 facet normal 0.0030 -0.5620 0.8271
   outer loop
     vertex 1.9480 0.0616 -1.9406
     vertex -1.9334 0.0616 -1.9264
     vertex -1.9879 -0.0186 -1.9807
   endloop
 endfacet
 facet normal -0.0009 -0.9677 -0.2521
   outer loop
     vertex -1.9984 -0.0159 -1.9911
     vertex 2.0127 -0.0159 -2.0056
     vertex 2.0024 -0.0186 -1.9952
   endloop
 endfacet
 facet normal -0.0009 -0.9681 -0.2504
   outer loop
     vertex 2.0024 -0.0186 -1.9952
     vertex -1.9879 -0.0186 -1.9807
     vertex -1.9984 -0.0159 -1.9911
   endloop
 endfacet
 facet normal -0.0035 -0.1674 -0.9859
   outer loop
     vertex -2.0942 0.5464 -2.0866
     vertex 2.1082 0.5464 -2.1014
     vertex 2.0127 -0.0159 -2.0056
   endloop
 endfacet
 facet normal -0.0036 -0.1680 -0.9858
   outer loop
     vertex 2.0127 -0.0159 -2.0056
     vertex -1.9984 -0.0159 -1.9911
     vertex -2.0942 0.5464 -2.0866
   endloop
 endfacet
 facet normal -0.0035 0.1057 -0.9944
   outer loop
     vertex -2.0425 1.0312 -2.0351
     vertex 2.0567 1.0312 -2.0497
     vertex 2.1082 0.5464 -2.1014
   endloop
 endfacet
 facet normal -0.0035 0.1060 -0.9944
   outer loop
     vertex 2.1082 0.5464 -2.1014
     vertex -2.0942 0.5464 -2.0866
     vertex -2.0425 1.0312 -2.0351
   endloop
 endfacet
 facet normal -0.0030 0.5607 -0.8280
   outer loop
     vertex -1.9879 1.1114 -1.9807
     vertex 2.0024 1.1114 -1.9952
     vertex 2.0567 1.0312 -2.0497
   endloop
 endfacet
 facet normal -0.0029 0.5627 -0.8266
   outer loop
     vertex 2.0567 1.0312 -2.0497
     vertex -2.0425 1.0312 -2.0351
     vertex -1.9879 1.1114 -1.9807
   endloop
 endfacet
 facet normal -0.2513 0.9679 0.0000
   outer loop
     vertex 1.9920 1.1087 -1.9847
     vertex 1.9920 1.1087 0.9908
     vertex 2.0024 1.1114 1.0012
   endloop
 endfacet
 facet normal -0.2513 0.9679 0.0000
   outer loop
     vertex 2.0024 1.1114 1.0012
     vertex 2.0024 1.1114 -1.9952
     vertex 1.9920 1.1087 -1.9847
   endloop
 endfacet
 facet normal -0.9858 0.1678 -0.0001
   outer loop
     vertex 1.8965 0.5464 -1.8889
     vertex 1.8963 0.5464 0.8951
     vertex 1.9920 1.1087 0.9908
   endloop
 endfacet
 facet normal -0.9859 0.1674 0.0000
   outer loop
     vertex 1.9920 1.1087 0.9908
     vertex 1.9920 1.1087 -1.9847
     vertex 1.8965 0.5464 -1.8889
   endloop
 endfacet
 facet normal -0.9944 -0.1058 -0.0000
   outer loop
     vertex 1.9480 0.0616 -1.9406
     vertex 1.9479 0.0616 0.9467
     vertex 1.8963 0.5464 0.8951
   endloop
 endfacet
 facet normal -0.9944 -0.1056 -0.0001
   outer loop
     vertex 1.8963 0.5464 0.8951
     vertex 1.8965 0.5464 -1.8889
     vertex 1.9480 0.0616 -1.9406
   endloop
 endfacet
 facet normal -0.8271 -0.5621 0.0000
   outer loop
     vertex 2.0024 -0.0186 -1.9952
     vertex 2.0024 -0.0186 1.0012
     vertex 1.9479 0.0616 0.9467
   endloop
 endfacet
 facet normal -0.8276 -0.5613 -0.0000
   outer loop
     vertex 1.9479 0.0616 0.9467
     vertex 1.9480 0.0616 -1.9406
     vertex 2.0024 -0.0186 -1.9952
   endloop
 endfacet
 facet normal 0.2513 -0.9679 -0.0000
   outer loop
     vertex 2.0127 -0.0159 -2.0056
     vertex 2.0128 -0.0159 1.0116
     vertex 2.0024 -0.0186 1.0012
   endloop
 endfacet
 facet normal 0.2536 -0.9673 0.0000
   outer loop
     vertex 2.0024 -0.0186 1.0012
     vertex 2.0024 -0.0186 -1.9952
     vertex 2.0127 -0.0159 -2.0056
   endloop
 endfacet
 facet normal 0.9859 -0.1676 -0.0001
   outer loop
     vertex 2.1082 0.5464 -2.1014
     vertex 2.1084 0.5464 1.1072
     vertex 2.0128 -0.0159 1.0116
   endloop
 endfacet
 facet normal 0.9859 -0.1674 -0.0000
   outer loop
     vertex 2.0128 -0.0159 1.0116
     vertex 2.0127 -0.0159 -2.0056
     vertex 2.1082 0.5464 -2.1014
   endloop
 endfacet
 facet normal 0.9944 0.1058 -0.0000
   outer loop
     vertex 2.0567 1.0312 -2.0497
     vertex 2.0568 1.0312 1.0556
     vertex 2.1084 0.5464 1.1072
   endloop
 endfacet
 facet normal 0.9944 0.1056 -0.0001
   outer loop
     vertex 2.1084 0.5464 1.1072
     vertex 2.1082 0.5464 -2.1014
     vertex 2.0567 1.0312 -2.0497
   endloop
 endfacet
 facet normal 0.8276 0.5613 -0.0000
   outer loop
     vertex 2.0024 1.1114 -1.9952
     vertex 2.0024 1.1114 1.0012
     vertex 2.0568 1.0312 1.0556
   endloop
 endfacet
 facet normal 0.8280 0.5607 -0.0000
   outer loop
     vertex 2.0568 1.0312 1.0556
     vertex 2.0567 1.0312 -2.0497
     vertex 2.0024 1.1114 -1.9952
   endloop
 endfacet
 facet normal 0.0008 0.9835 -0.1807
   outer loop
     vertex 1.9920 1.1087 0.9908
     vertex 1.0228 1.1087 0.9865
     vertex 1.0228 1.1114 1.0012
   endloop
 endfacet
 facet normal 0.0000 0.9679 -0.2513
   outer loop
     vertex 1.0228 1.1114 1.0012
     vertex 2.0024 1.1114 1.0012
     vertex 1.9920 1.1087 0.9908
   endloop
 endfacet
 facet normal 0.0488 0.2337 -0.9711
   outer loop
     vertex 1.8963 0.5464 0.8951
     vertex 1.0228 0.5464 0.8512
     vertex 1.0228 1.1087 0.9865
   endloop
 endfacet
 facet normal 0.0044 0.1671 -0.9859
   outer loop
     vertex 1.0228 1.1087 0.9865
     vertex 1.9920 1.1087 0.9908
     vertex 1.8963 0.5464 0.8951
   endloop
 endfacet
 facet normal 0.0240 -0.1489 -0.9886
   outer loop
     vertex 1.9479 0.0616 0.9467
     vertex 1.0228 0.0616 0.9242
     vertex 1.0228 0.5464 0.8512
   endloop
 endfacet
 facet normal 0.0499 -0.1004 -0.9937
   outer loop
     vertex 1.0228 0.5464 0.8512
     vertex 1.8963 0.5464 0.8951
     vertex 1.9479 0.0616 0.9467
   endloop
 endfacet
 facet normal -0.0000 -0.6926 -0.7214
   outer loop
     vertex 2.0024 -0.0186 1.0012
     vertex 1.0228 -0.0186 1.0012
     vertex 1.0228 0.0616 0.9242
   endloop
 endfacet
 facet normal 0.0203 -0.5525 -0.8333
   outer loop
     vertex 1.0228 0.0616 0.9242
     vertex 1.9479 0.0616 0.9467
     vertex 2.0024 -0.0186 1.0012
   endloop
 endfacet
 facet normal 0.0008 -0.9835 0.1807
   outer loop
     vertex 2.0128 -0.0159 1.0116
     vertex 1.0228 -0.0159 1.0159
     vertex 1.0228 -0.0186 1.0012
   endloop
 endfacet
 facet normal 0.0000 -0.9679 0.2513
   outer loop
     vertex 1.0228 -0.0186 1.0012
     vertex 2.0024 -0.0186 1.0012
     vertex 2.0128 -0.0159 1.0116
   endloop
 endfacet
 facet normal 0.0394 -0.2338 0.9715
   outer loop
     vertex 2.1084 0.5464 1.1072
     vertex 1.0228 0.5464 1.1512
     vertex 1.0228 -0.0159 1.0159
   endloop
 endfacet
 facet normal 0.0043 -0.1683 0.9857
   outer loop
     vertex 1.0228 -0.0159 1.0159
     vertex 2.0128 -0.0159 1.0116
     vertex 2.1084 0.5464 1.1072
   endloop
 endfacet
 facet normal 0.0216 0.1489 0.9886
   outer loop
     vertex 2.0568 1.0312 1.0556
     vertex 1.0228 1.0312 1.0782
     vertex 1.0228 0.5464 1.1512
   endloop
 endfacet
 facet normal 0.0403 0.1100 0.9931
   outer loop
     vertex 1.0228 0.5464 1.1512
     vertex 2.1084 0.5464 1.1072
     vertex 2.0568 1.0312 1.0556
   endloop
 endfacet
 facet normal 0.0000 0.6926 0.7214
   outer loop
     vertex 2.0024 1.1114 1.0012
     vertex 1.0228 1.1114 1.0012
     vertex 1.0228 1.0312 1.0782
   endloop
 endfacet
 facet normal 0.0180 0.5696 0.8217
   outer loop
     vertex 1.0228 1.0312 1.0782
     vertex 2.0568 1.0312 1.0556
     vertex 2.0024 1.1114 1.0012
   endloop
 endfacet
 facet normal 0.0000 -0.0000 1.0000
   outer loop
     vertex -1.9879 -0.0186 2.0096
     vertex -1.9110 0.0616 2.0096
     vertex -2.0027 -0.0159 2.0096
   endloop
 endfacet
 facet normal -0.0137 0.0006 0.9999
   outer loop
     vertex -0.9937 -0.0159 3.0181
     vertex -1.0854 0.0616 3.0168
     vertex -1.0084 -0.0186 3.0179
   endloop
 endfacet
 facet normal 0.0000 -0.0000 1.0000
   outer loop
     vertex -1.9110 0.0616 2.0096
     vertex -1.8379 0.5464 2.0096
     vertex -2.0027 -0.0159 2.0096
   endloop
 endfacet
 facet normal -0.0142 -0.0001 0.9999
   outer loop
     vertex -0.9937 -0.0159 3.0181
     vertex -1.1584 0.5464 3.0158
     vertex -1.0854 0.0616 3.0168
   endloop
 endfacet
 facet normal 0.0000 0.0000 1.0000
   outer loop
     vertex -1.8379 0.5464 2.0096
     vertex -2.1379 0.5464 2.0096
     vertex -2.0027 -0.0159 2.0096
   endloop
 endfacet
 facet normal -0.0143 -0.0001 0.9999
   outer loop
     vertex -0.9937 -0.0159 3.0181
     vertex -0.8584 0.5464 3.0201
     vertex -1.1584 0.5464 3.0158
   endloop
 endfacet
 facet normal 0.0000 0.0000 1.0000
   outer loop
     vertex -1.8379 0.5464 2.0096
     vertex -2.0649 1.0312 2.0096
     vertex -2.1379 0.5464 2.0096
   endloop
 endfacet
 facet normal -0.0143 0.0001 0.9999
   outer loop
     vertex -0.8584 0.5464 3.0201
     vertex -0.9314 1.0312 3.0190
     vertex -1.1584 0.5464 3.0158
   endloop
 endfacet
 facet normal 0.0000 0.0000 1.0000
   outer loop
     vertex -1.8379 0.5464 2.0096
     vertex -1.9732 1.1087 2.0096
     vertex -2.0649 1.0312 2.0096
   endloop
 endfacet
 facet normal -0.0142 0.0000 0.9999
   outer loop
     vertex -0.9314 1.0312 3.0190
     vertex -1.0231 1.1087 3.0177
     vertex -1.1584 0.5464 3.0158
   endloop
 endfacet
 facet normal 0.0000 0.0000 1.0000
   outer loop
     vertex -1.9732 1.1087 2.0096
     vertex -1.9879 1.1114 2.0096
     vertex -2.0649 1.0312 2.0096
   endloop
 endfacet
 facet normal -0.0137 0.0006 0.9999
   outer loop
     vertex -0.9314 1.0312 3.0190
     vertex -1.0084 1.1114 3.0179
     vertex -1.0231 1.1087 3.0177
   endloop
 endfacet
 facet normal 0.2523 0.9676 -0.0011
   outer loop
     vertex -1.9732 1.1087 2.0096
     vertex -1.9775 1.1087 1.0116
     vertex -1.9879 1.1114 1.0012
   endloop
 endfacet
 facet normal 0.1806 0.9835 -0.0000
   outer loop
     vertex -1.9879 1.1114 1.0012
     vertex -1.9879 1.1114 2.0096
     vertex -1.9732 1.1087 2.0096
   endloop
 endfacet
 facet normal 0.9860 0.1595 -0.0481
   outer loop
     vertex -1.8379 0.5464 2.0096
     vertex -1.8819 0.5464 1.1072
     vertex -1.9775 1.1087 1.0116
   endloop
 endfacet
 facet normal 0.9722 0.2339 -0.0042
   outer loop
     vertex -1.9775 1.1087 1.0116
     vertex -1.9732 1.1087 2.0096
     vertex -1.8379 0.5464 2.0096
   endloop
 endfacet
 facet normal 0.9944 -0.1033 -0.0235
   outer loop
     vertex -1.9110 0.0616 2.0096
     vertex -1.9335 0.0616 1.0556
     vertex -1.8819 0.5464 1.1072
   endloop
 endfacet
 facet normal 0.9877 -0.1489 -0.0482
   outer loop
     vertex -1.8819 0.5464 1.1072
     vertex -1.8379 0.5464 2.0096
     vertex -1.9110 0.0616 2.0096
   endloop
 endfacet
 facet normal 0.8276 -0.5613 0.0000
   outer loop
     vertex -1.9879 -0.0186 2.0096
     vertex -1.9879 -0.0186 1.0012
     vertex -1.9335 0.0616 1.0556
   endloop
 endfacet
 facet normal 0.7217 -0.6920 -0.0170
   outer loop
     vertex -1.9335 0.0616 1.0556
     vertex -1.9110 0.0616 2.0096
     vertex -1.9879 -0.0186 2.0096
   endloop
 endfacet
 facet normal -0.2481 -0.9687 -0.0010
   outer loop
     vertex -2.0027 -0.0159 2.0096
     vertex -1.9984 -0.0159 0.9908
     vertex -1.9879 -0.0186 1.0012
   endloop
 endfacet
 facet normal -0.1795 -0.9838 0.0000
   outer loop
     vertex -1.9879 -0.0186 1.0012
     vertex -1.9879 -0.0186 2.0096
     vertex -2.0027 -0.0159 2.0096
   endloop
 endfacet
 facet normal -0.9840 -0.1739 -0.0388
   outer loop
     vertex -2.1379 0.5464 2.0096
     vertex -2.0940 0.5464 0.8951
     vertex -1.9984 -0.0159 0.9908
   endloop
 endfacet
 facet normal -0.9723 -0.2338 -0.0041
   outer loop
     vertex -1.9984 -0.0159 0.9908
     vertex -2.0027 -0.0159 2.0096
     vertex -2.1379 0.5464 2.0096
   endloop
 endfacet
 facet normal -0.9939 0.1080 -0.0210
   outer loop
     vertex -2.0649 1.0312 2.0096
     vertex -2.0424 1.0312 0.9467
     vertex -2.0940 0.5464 0.8951
   endloop
 endfacet
 facet normal -0.9881 0.1488 -0.0389
   outer loop
     vertex -2.0940 0.5464 0.8951
     vertex -2.1379 0.5464 2.0096
     vertex -2.0649 1.0312 2.0096
   endloop
 endfacet
 facet normal -0.8271 0.5621 0.0000
   outer loop
     vertex -1.9879 1.1114 2.0096
     vertex -1.9879 1.1114 1.0012
     vertex -2.0424 1.0312 0.9467
   endloop
 endfacet
 facet normal -0.7213 0.6925 -0.0153
   outer loop
     vertex -2.0424 1.0312 0.9467
     vertex -2.0649 1.0312 2.0096
     vertex -1.9879 1.1114 2.0096
   endloop
 endfacet
 facet normal 0.0000 0.9673 0.2536
   outer loop
     vertex -1.9775 1.1087 1.0116
     vertex 0.9979 1.1087 1.0115
     vertex 1.0084 1.1114 1.0012
   endloop
 endfacet
 facet normal 0.0000 0.9679 0.2513
   outer loop
     vertex 1.0084 1.1114 1.0012
     vertex -1.9879 1.1114 1.0012
     vertex -1.9775 1.1087 1.0116
   endloop
 endfacet
 facet normal 0.0002 0.1665 0.9860
   outer loop
     vertex -1.8819 0.5464 1.1072
     vertex 0.9016 0.5464 1.1065
     vertex 0.9979 1.1087 1.0115
   endloop
 endfacet
 facet normal 0.0000 0.1676 0.9859
   outer loop
     vertex 0.9979 1.1087 1.0115
     vertex -1.9775 1.1087 1.0116
     vertex -1.8819 0.5464 1.1072
   endloop
 endfacet
 facet normal 0.0001 -0.1052 0.9944
   outer loop
     vertex -1.9335 0.0616 1.0556
     vertex 0.9536 0.0616 1.0552
     vertex 0.9016 0.5464 1.1065
   endloop
 endfacet
 facet normal 0.0003 -0.1059 0.9944
   outer loop
     vertex 0.9016 0.5464 1.1065
     vertex -1.8819 0.5464 1.1072
     vertex -1.9335 0.0616 1.0556
   endloop
 endfacet
 facet normal 0.0000 -0.5585 0.8295
   outer loop
     vertex -1.9879 -0.0186 1.0012
     vertex 1.0084 -0.0186 1.0012
     vertex 0.9536 0.0616 1.0552
   endloop
 endfacet
 facet normal 0.0001 -0.5614 0.8275
   outer loop
     vertex 0.9536 0.0616 1.0552
     vertex -1.9335 0.0616 1.0556
     vertex -1.9879 -0.0186 1.0012
   endloop
 endfacet
 facet normal 0.0000 -0.9679 -0.2513
   outer loop
     vertex -1.9984 -0.0159 0.9908
     vertex 1.0189 -0.0159 0.9908
     vertex 1.0084 -0.0186 1.0012
   endloop
 endfacet
 facet normal -0.0000 -0.9679 -0.2513
   outer loop
     vertex 1.0084 -0.0186 1.0012
     vertex -1.9879 -0.0186 1.0012
     vertex -1.9984 -0.0159 0.9908
   endloop
 endfacet
 facet normal 0.0002 -0.1665 -0.9860
   outer loop
     vertex -2.0940 0.5464 0.8951
     vertex 1.1152 0.5464 0.8959
     vertex 1.0189 -0.0159 0.9908
   endloop
 endfacet
 facet normal -0.0000 -0.1678 -0.9858
   outer loop
     vertex 1.0189 -0.0159 0.9908
     vertex -1.9984 -0.0159 0.9908
     vertex -2.0940 0.5464 0.8951
   endloop
 endfacet
 facet normal 0.0001 0.1050 -0.9945
   outer loop
     vertex -2.0424 1.0312 0.9467
     vertex 1.0632 1.0312 0.9471
     vertex 1.1152 0.5464 0.8959
   endloop
 endfacet
 facet normal 0.0002 0.1058 -0.9944
   outer loop
     vertex 1.1152 0.5464 0.8959
     vertex -2.0940 0.5464 0.8951
     vertex -2.0424 1.0312 0.9467
   endloop
 endfacet
 facet normal 0.0000 0.5592 -0.8290
   outer loop
     vertex -1.9879 1.1114 1.0012
     vertex 1.0084 1.1114 1.0012
     vertex 1.0632 1.0312 0.9471
   endloop
 endfacet
 facet normal 0.0001 0.5620 -0.8271
   outer loop
     vertex 1.0632 1.0312 0.9471
     vertex -2.0424 1.0312 0.9467
     vertex -1.9879 1.1114 1.0012
   endloop
 endfacet
 facet normal -0.2479 0.9688 -0.0036
   outer loop
     vertex 0.9979 1.1087 1.0115
     vertex 0.9836 1.1087 1.9991
     vertex 0.9940 1.1114 2.0096
   endloop
 endfacet
 facet normal -0.2524 0.9676 -0.0036
   outer loop
     vertex 0.9940 1.1114 2.0096
     vertex 1.0084 1.1114 1.0012
     vertex 0.9979 1.1087 1.0115
   endloop
 endfacet
 facet normal -0.9855 0.1691 -0.0160
   outer loop
     vertex 0.9016 0.5464 1.1065
     vertex 0.8887 0.5464 1.9027
     vertex 0.9836 1.1087 1.9991
   endloop
 endfacet
 facet normal -0.9859 0.1664 -0.0143
   outer loop
     vertex 0.9836 1.1087 1.9991
     vertex 0.9979 1.1087 1.0115
     vertex 0.9016 0.5464 1.1065
   endloop
 endfacet
 facet normal -0.9942 -0.1066 -0.0151
   outer loop
     vertex 0.9536 0.0616 1.0552
     vertex 0.9399 0.0616 1.9547
     vertex 0.8887 0.5464 1.9027
   endloop
 endfacet
 facet normal -0.9943 -0.1049 -0.0161
   outer loop
     vertex 0.8887 0.5464 1.9027
     vertex 0.9016 0.5464 1.1065
     vertex 0.9536 0.0616 1.0552
   endloop
 endfacet
 facet normal -0.8252 -0.5647 -0.0118
   outer loop
     vertex 1.0084 -0.0186 1.0012
     vertex 0.9940 -0.0186 2.0096
     vertex 0.9399 0.0616 1.9547
   endloop
 endfacet
 facet normal -0.8295 -0.5583 -0.0126
   outer loop
     vertex 0.9399 0.0616 1.9547
     vertex 0.9536 0.0616 1.0552
     vertex 1.0084 -0.0186 1.0012
   endloop
 endfacet
 facet normal 0.2502 -0.9682 0.0035
   outer loop
     vertex 1.0189 -0.0159 0.9908
     vertex 1.0043 -0.0159 2.0200
     vertex 0.9940 -0.0186 2.0096
   endloop
 endfacet
 facet normal 0.2524 -0.9676 0.0036
   outer loop
     vertex 0.9940 -0.0186 2.0096
     vertex 1.0084 -0.0186 1.0012
     vertex 1.0189 -0.0159 0.9908
   endloop
 endfacet
 facet normal 0.9856 -0.1687 0.0128
   outer loop
     vertex 1.1152 0.5464 0.8959
     vertex 1.0993 0.5464 2.1164
     vertex 1.0043 -0.0159 2.0200
   endloop
 endfacet
 facet normal 0.9859 -0.1665 0.0140
   outer loop
     vertex 1.0043 -0.0159 2.0200
     vertex 1.0189 -0.0159 0.9908
     vertex 1.1152 0.5464 0.8959
   endloop
 endfacet
 facet normal 0.9942 0.1067 0.0135
   outer loop
     vertex 1.0632 1.0312 0.9471
     vertex 1.0480 1.0312 2.0644
     vertex 1.0993 0.5464 2.1164
   endloop
 endfacet
 facet normal 0.9944 0.1053 0.0130
   outer loop
     vertex 1.0993 0.5464 2.1164
     vertex 1.1152 0.5464 0.8959
     vertex 1.0632 1.0312 0.9471
   endloop
 endfacet
 facet normal 0.8257 0.5640 0.0118
   outer loop
     vertex 1.0084 1.1114 1.0012
     vertex 0.9940 1.1114 2.0096
     vertex 1.0480 1.0312 2.0644
   endloop
 endfacet
 facet normal 0.8291 0.5589 0.0113
   outer loop
     vertex 1.0480 1.0312 2.0644
     vertex 1.0632 1.0312 0.9471
     vertex 1.0084 1.1114 1.0012
   endloop
 endfacet
 facet normal 0.0000 0.9685 -0.2490
   outer loop
     vertex 0.9836 1.1087 1.9991
     vertex -1.0043 1.1087 1.9991
     vertex -0.9940 1.1114 2.0096
   endloop
 endfacet
 facet normal 0.0000 0.9685 -0.2490
   outer loop
     vertex -0.9940 1.1114 2.0096
     vertex 0.9940 1.1114 2.0096
     vertex 0.9836 1.1087 1.9991
   endloop
 endfacet
 facet normal 0.0000 0.1690 -0.9856
   outer loop
     vertex 0.8887 0.5464 1.9027
     vertex -1.0993 0.5464 1.9027
     vertex -1.0043 1.1087 1.9991
   endloop
 endfacet
 facet normal 0.0000 0.1690 -0.9856
   outer loop
     vertex -1.0043 1.1087 1.9991
     vertex 0.9836 1.1087 1.9991
     vertex 0.8887 0.5464 1.9027
   endloop
 endfacet
 facet normal -0.0000 -0.1066 -0.9943
   outer loop
     vertex 0.9399 0.0616 1.9547
     vertex -1.0480 0.0616 1.9547
     vertex -1.0993 0.5464 1.9027
   endloop
 endfacet
 facet normal 0.0000 -0.1066 -0.9943
   outer loop
     vertex -1.0993 0.5464 1.9027
     vertex 0.8887 0.5464 1.9027
     vertex 0.9399 0.0616 1.9547
   endloop
 endfacet
 facet normal -0.0000 -0.5649 -0.8252
   outer loop
     vertex 0.9940 -0.0186 2.0096
     vertex -0.9940 -0.0186 2.0096
     vertex -1.0480 0.0616 1.9547
   endloop
 endfacet
 facet normal 0.0000 -0.5649 -0.8252
   outer loop
     vertex -1.0480 0.0616 1.9547
     vertex 0.9399 0.0616 1.9547
     vertex 0.9940 -0.0186 2.0096
   endloop
 endfacet
 facet normal 0.0000 -0.9679 0.2513
   outer loop
     vertex 1.0043 -0.0159 2.0200
     vertex -0.9836 -0.0159 2.0200
     vertex -0.9940 -0.0186 2.0096
   endloop
 endfacet
 facet normal 0.0000 -0.9679 0.2513
   outer loop
     vertex -0.9940 -0.0186 2.0096
     vertex 0.9940 -0.0186 2.0096
     vertex 1.0043 -0.0159 2.0200
   endloop
 endfacet
 facet normal 0.0000 -0.1690 0.9856
   outer loop
     vertex 1.0993 0.5464 2.1164
     vertex -0.8887 0.5464 2.1164
     vertex -0.9836 -0.0159 2.0200
   endloop
 endfacet
 facet normal 0.0000 -0.1690 0.9856
   outer loop
     vertex -0.9836 -0.0159 2.0200
     vertex 1.0043 -0.0159 2.0200
     vertex 1.0993 0.5464 2.1164
   endloop
 endfacet
 facet normal 0.0000 0.1066 0.9943
   outer loop
     vertex 1.0480 1.0312 2.0644
     vertex -0.9399 1.0312 2.0644
     vertex -0.8887 0.5464 2.1164
   endloop
 endfacet
 facet normal -0.0000 0.1066 0.9943
   outer loop
     vertex -0.8887 0.5464 2.1164
     vertex 1.0993 0.5464 2.1164
     vertex 1.0480 1.0312 2.0644
   endloop
 endfacet
 facet normal 0.0000 0.5642 0.8257
   outer loop
     vertex 0.9940 1.1114 2.0096
     vertex -0.9940 1.1114 2.0096
     vertex -0.9399 1.0312 2.0644
   endloop
 endfacet
 facet normal -0.0000 0.5642 0.8257
   outer loop
     vertex -0.9399 1.0312 2.0644
     vertex 1.0480 1.0312 2.0644
     vertex 0.9940 1.1114 2.0096
   endloop
 endfacet
 facet normal -0.1806 0.9836 -0.0033
   outer loop
     vertex -1.0043 1.1087 1.9991
     vertex -1.0231 1.1087 3.0177
     vertex -1.0084 1.1114 3.0179
   endloop
 endfacet
 facet normal -0.2502 0.9682 -0.0036
   outer loop
     vertex -1.0084 1.1114 3.0179
     vertex -0.9940 1.1114 2.0096
     vertex -1.0043 1.1087 1.9991
   endloop
 endfacet
 facet normal -0.9709 0.2338 -0.0516
   outer loop
     vertex -1.0993 0.5464 1.9027
     vertex -1.1584 0.5464 3.0158
     vertex -1.0231 1.1087 3.0177
   endloop
 endfacet
 facet normal -0.9853 0.1696 -0.0182
   outer loop
     vertex -1.0231 1.1087 3.0177
     vertex -1.0043 1.1087 1.9991
     vertex -1.0993 0.5464 1.9027
   endloop
 endfacet
 facet normal -0.9882 -0.1489 -0.0348
   outer loop
     vertex -1.0480 0.0616 1.9547
     vertex -1.0854 0.0616 3.0168
     vertex -1.1584 0.5464 3.0158
   endloop
 endfacet
 facet normal -0.9925 -0.1107 -0.0527
   outer loop
     vertex -1.1584 0.5464 3.0158
     vertex -1.0993 0.5464 1.9027
     vertex -1.0480 0.0616 1.9547
   endloop
 endfacet
 facet normal -0.7212 -0.6926 -0.0103
   outer loop
     vertex -0.9940 -0.0186 2.0096
     vertex -1.0084 -0.0186 3.0179
     vertex -1.0854 0.0616 3.0168
   endloop
 endfacet
 facet normal -0.8199 -0.5718 -0.0289
   outer loop
     vertex -1.0854 0.0616 3.0168
     vertex -1.0480 0.0616 1.9547
     vertex -0.9940 -0.0186 2.0096
   endloop
 endfacet
 facet normal 0.1806 -0.9835 0.0018
   outer loop
     vertex -0.9836 -0.0159 2.0200
     vertex -0.9937 -0.0159 3.0181
     vertex -1.0084 -0.0186 3.0179
   endloop
 endfacet
 facet normal 0.2480 -0.9688 0.0035
   outer loop
     vertex -1.0084 -0.0186 3.0179
     vertex -0.9940 -0.0186 2.0096
     vertex -0.9836 -0.0159 2.0200
   endloop
 endfacet
 facet normal 0.9718 -0.2337 -0.0326
   outer loop
     vertex -0.8887 0.5464 2.1164
     vertex -0.8584 0.5464 3.0201
     vertex -0.9937 -0.0159 3.0181
   endloop
 endfacet
 facet normal 0.9857 -0.1681 0.0100
   outer loop
     vertex -0.9937 -0.0159 3.0181
     vertex -0.9836 -0.0159 2.0200
     vertex -0.8887 0.5464 2.1164
   endloop
 endfacet
 facet normal 0.9888 0.1489 -0.0088
   outer loop
     vertex -0.9399 1.0312 2.0644
     vertex -0.9314 1.0312 3.0190
     vertex -0.8584 0.5464 3.0201
   endloop
 endfacet
 facet normal 0.9943 0.1014 -0.0333
   outer loop
     vertex -0.8584 0.5464 3.0201
     vertex -0.8887 0.5464 2.1164
     vertex -0.9399 1.0312 2.0644
   endloop
 endfacet
 facet normal 0.7212 0.6926 0.0103
   outer loop
     vertex -0.9940 1.1114 2.0096
     vertex -1.0084 1.1114 3.0179
     vertex -0.9314 1.0312 3.0190
   endloop
 endfacet
 facet normal 0.8313 0.5557 -0.0074
   outer loop
     vertex -0.9314 1.0312 3.0190
     vertex -0.9399 1.0312 2.0644
     vertex -0.9940 1.1114 2.0096
   endloop
 endfacet
 facet normal -0.0066 0.0013 1.0000
   outer loop
     vertex -2.9963 -0.0186 -0.0072
     vertex -2.9193 0.0616 -0.0068
     vertex -3.0110 -0.0159 -0.0073
   endloop
 endfacet
 facet normal -0.9999 -0.0006 0.0136
   outer loop
     vertex 1.0086 -0.0159 3.0471
     vertex 1.0073 0.0616 2.9554
     vertex 1.0084 -0.0186 3.0323
   endloop
 endfacet
 facet normal -0.0056 0.0002 1.0000
   outer loop
     vertex -2.9193 0.0616 -0.0068
     vertex -2.8463 0.5464 -0.0065
     vertex -3.0110 -0.0159 -0.0073
   endloop
 endfacet
 facet normal -0.9999 -0.0002 0.0140
   outer loop
     vertex 1.0086 -0.0159 3.0471
     vertex 1.0062 0.5464 2.8824
     vertex 1.0073 0.0616 2.9554
   endloop
 endfacet
 facet normal -0.0047 -0.0001 1.0000
   outer loop
     vertex -2.8463 0.5464 -0.0065
     vertex -3.1463 0.5464 -0.0079
     vertex -3.0110 -0.0159 -0.0073
   endloop
 endfacet
 facet normal -0.9999 0.0000 0.0147
   outer loop
     vertex 1.0086 -0.0159 3.0471
     vertex 1.0106 0.5464 3.1823
     vertex 1.0062 0.5464 2.8824
   endloop
 endfacet
 facet normal -0.0047 0.0001 1.0000
   outer loop
     vertex -2.8463 0.5464 -0.0065
     vertex -3.0733 1.0312 -0.0076
     vertex -3.1463 0.5464 -0.0079
   endloop
 endfacet
 facet normal -0.9999 -0.0001 0.0147
   outer loop
     vertex 1.0106 0.5464 3.1823
     vertex 1.0095 1.0312 3.1093
     vertex 1.0062 0.5464 2.8824
   endloop
 endfacet
 facet normal -0.0053 -0.0002 1.0000
   outer loop
     vertex -2.8463 0.5464 -0.0065
     vertex -2.9816 1.1087 -0.0071
     vertex -3.0733 1.0312 -0.0076
   endloop
 endfacet
 facet normal -0.9999 0.0001 0.0143
   outer loop
     vertex 1.0095 1.0312 3.1093
     vertex 1.0082 1.1087 3.0176
     vertex 1.0062 0.5464 2.8824
   endloop
 endfacet
 facet normal -0.0066 0.0013 1.0000
   outer loop
     vertex -2.9816 1.1087 -0.0071
     vertex -2.9963 1.1114 -0.0072
     vertex -3.0733 1.0312 -0.0076
   endloop
 endfacet
 facet normal -0.9999 -0.0006 0.0137
   outer loop
     vertex 1.0095 1.0312 3.1093
     vertex 1.0084 1.1114 3.0323
     vertex 1.0082 1.1087 3.0176
   endloop
 endfacet
 facet normal 0.2528 0.9675 0.0009
   outer loop
     vertex -2.9816 1.1087 -0.0071
     vertex -2.9716 1.1087 -2.9787
     vertex -2.9819 1.1114 -2.9891
   endloop
 endfacet
 facet normal 0.1806 0.9835 0.0009
   outer loop
     vertex -2.9819 1.1114 -2.9891
     vertex -2.9963 1.1114 -0.0072
     vertex -2.9816 1.1087 -0.0071
   endloop
 endfacet
 facet normal 0.9861 0.1656 -0.0103
   outer loop
     vertex -2.8463 0.5464 -0.0065
     vertex -2.8762 0.5464 -2.8827
     vertex -2.9716 1.1087 -2.9787
   endloop
 endfacet
 facet normal 0.9722 0.2339 0.0033
   outer loop
     vertex -2.9716 1.1087 -2.9787
     vertex -2.9816 1.1087 -0.0071
     vertex -2.8463 0.5464 -0.0065
   endloop
 endfacet
 facet normal 0.9944 -0.1053 -0.0029
   outer loop
     vertex -2.9193 0.0616 -0.0068
     vertex -2.9277 0.0616 -2.9345
     vertex -2.8762 0.5464 -2.8827
   endloop
 endfacet
 facet normal 0.9888 -0.1489 -0.0103
   outer loop
     vertex -2.8762 0.5464 -2.8827
     vertex -2.8463 0.5464 -0.0065
     vertex -2.9193 0.0616 -0.0068
   endloop
 endfacet
 facet normal 0.8273 -0.5618 0.0040
   outer loop
     vertex -2.9963 -0.0186 -0.0072
     vertex -2.9819 -0.0186 -2.9891
     vertex -2.9277 0.0616 -2.9345
   endloop
 endfacet
 facet normal 0.7214 -0.6926 -0.0021
   outer loop
     vertex -2.9277 0.0616 -2.9345
     vertex -2.9193 0.0616 -0.0068
     vertex -2.9963 -0.0186 -0.0072
   endloop
 endfacet
 facet normal -0.2498 -0.9683 -0.0016
   outer loop
     vertex -3.0110 -0.0159 -0.0073
     vertex -2.9923 -0.0159 -2.9996
     vertex -2.9819 -0.0186 -2.9891
   endloop
 endfacet
 facet normal -0.1806 -0.9835 -0.0009
   outer loop
     vertex -2.9819 -0.0186 -2.9891
     vertex -2.9963 -0.0186 -0.0072
     vertex -3.0110 -0.0159 -0.0073
   endloop
 endfacet
 facet normal -0.9852 -0.1702 -0.0187
   outer loop
     vertex -3.1463 0.5464 -0.0079
     vertex -3.0876 0.5464 -3.0956
     vertex -2.9923 -0.0159 -2.9996
   endloop
 endfacet
 facet normal -0.9722 -0.2339 -0.0061
   outer loop
     vertex -2.9923 -0.0159 -2.9996
     vertex -3.0110 -0.0159 -0.0073
     vertex -3.1463 0.5464 -0.0079
   endloop
 endfacet
 facet normal -0.9942 0.1067 -0.0121
   outer loop
     vertex -3.0733 1.0312 -0.0076
     vertex -3.0362 1.0312 -3.0438
     vertex -3.0876 0.5464 -3.0956
   endloop
 endfacet
 facet normal -0.9887 0.1489 -0.0188
   outer loop
     vertex -3.0876 0.5464 -3.0956
     vertex -3.1463 0.5464 -0.0079
     vertex -3.0733 1.0312 -0.0076
   endloop
 endfacet
 facet normal -0.8268 0.5625 -0.0040
   outer loop
     vertex -2.9963 1.1114 -0.0072
     vertex -2.9819 1.1114 -2.9891
     vertex -3.0362 1.0312 -3.0438
   endloop
 endfacet
 facet normal -0.7213 0.6926 -0.0088
   outer loop
     vertex -3.0362 1.0312 -3.0438
     vertex -3.0733 1.0312 -0.0076
     vertex -2.9963 1.1114 -0.0072
   endloop
 endfacet
 facet normal -0.0006 0.9675 0.2530
   outer loop
     vertex -2.9716 1.1087 -2.9787
     vertex 3.0147 1.1087 -2.9644
     vertex 3.0251 1.1114 -2.9747
   endloop
 endfacet
 facet normal -0.0006 0.9678 0.2518
   outer loop
     vertex 3.0251 1.1114 -2.9747
     vertex -2.9819 1.1114 -2.9891
     vertex -2.9716 1.1087 -2.9787
   endloop
 endfacet
 facet normal -0.0023 0.1677 0.9858
   outer loop
     vertex -2.8762 0.5464 -2.8827
     vertex 2.9187 0.5464 -2.8690
     vertex 3.0147 1.1087 -2.9644
   endloop
 endfacet
 facet normal -0.0024 0.1679 0.9858
   outer loop
     vertex 3.0147 1.1087 -2.9644
     vertex -2.9716 1.1087 -2.9787
     vertex -2.8762 0.5464 -2.8827
   endloop
 endfacet
 facet normal -0.0024 -0.1059 0.9944
   outer loop
     vertex -2.9277 0.0616 -2.9345
     vertex 2.9705 0.0616 -2.9205
     vertex 2.9187 0.5464 -2.8690
   endloop
 endfacet
 facet normal -0.0024 -0.1060 0.9944
   outer loop
     vertex 2.9187 0.5464 -2.8690
     vertex -2.8762 0.5464 -2.8827
     vertex -2.9277 0.0616 -2.9345
   endloop
 endfacet
 facet normal -0.0020 -0.5609 0.8279
   outer loop
     vertex -2.9819 -0.0186 -2.9891
     vertex 3.0251 -0.0186 -2.9747
     vertex 2.9705 0.0616 -2.9205
   endloop
 endfacet
 facet normal -0.0020 -0.5619 0.8272
   outer loop
     vertex 2.9705 0.0616 -2.9205
     vertex -2.9277 0.0616 -2.9345
     vertex -2.9819 -0.0186 -2.9891
   endloop
 endfacet
 facet normal 0.0006 -0.9681 -0.2507
   outer loop
     vertex -2.9923 -0.0159 -2.9996
     vertex 3.0356 -0.0159 -2.9851
     vertex 3.0251 -0.0186 -2.9747
   endloop
 endfacet
 facet normal 0.0006 -0.9683 -0.2496
   outer loop
     vertex 3.0251 -0.0186 -2.9747
     vertex -2.9819 -0.0186 -2.9891
     vertex -2.9923 -0.0159 -2.9996
   endloop
 endfacet
 facet normal 0.0024 -0.1675 -0.9859
   outer loop
     vertex -3.0876 0.5464 -3.0956
     vertex 3.1316 0.5464 -3.0804
     vertex 3.0356 -0.0159 -2.9851
   endloop
 endfacet
 facet normal 0.0024 -0.1679 -0.9858
   outer loop
     vertex 3.0356 -0.0159 -2.9851
     vertex -2.9923 -0.0159 -2.9996
     vertex -3.0876 0.5464 -3.0956
   endloop
 endfacet
 facet normal 0.0024 0.1057 -0.9944
   outer loop
     vertex -3.0362 1.0312 -3.0438
     vertex 3.0798 1.0312 -3.0290
     vertex 3.1316 0.5464 -3.0804
   endloop
 endfacet
 facet normal 0.0024 0.1060 -0.9944
   outer loop
     vertex 3.1316 0.5464 -3.0804
     vertex -3.0876 0.5464 -3.0956
     vertex -3.0362 1.0312 -3.0438
   endloop
 endfacet
 facet normal 0.0020 0.5616 -0.8274
   outer loop
     vertex -2.9819 1.1114 -2.9891
     vertex 3.0251 1.1114 -2.9747
     vertex 3.0798 1.0312 -3.0290
   endloop
 endfacet
 facet normal 0.0020 0.5625 -0.8268
   outer loop
     vertex 3.0798 1.0312 -3.0290
     vertex -3.0362 1.0312 -3.0438
     vertex -2.9819 1.1114 -2.9891
   endloop
 endfacet
 facet normal -0.2502 0.9682 -0.0012
   outer loop
     vertex 3.0147 1.1087 -2.9644
     vertex 2.9859 1.1087 2.9932
     vertex 2.9963 1.1114 3.0035
   endloop
 endfacet
 facet normal -0.2524 0.9676 -0.0012
   outer loop
     vertex 2.9963 1.1114 3.0035
     vertex 3.0251 1.1114 -2.9747
     vertex 3.0147 1.1087 -2.9644
   endloop
 endfacet
 facet normal -0.9856 0.1693 -0.0049
   outer loop
     vertex 2.9187 0.5464 -2.8690
     vertex 2.8898 0.5464 2.8980
     vertex 2.9859 1.1087 2.9932
   endloop
 endfacet
 facet normal -0.9859 0.1675 -0.0048
   outer loop
     vertex 2.9859 1.1087 2.9932
     vertex 3.0147 1.1087 -2.9644
     vertex 2.9187 0.5464 -2.8690
   endloop
 endfacet
 facet normal -0.9943 -0.1068 -0.0049
   outer loop
     vertex 2.9705 0.0616 -2.9205
     vertex 2.9416 0.0616 2.9494
     vertex 2.8898 0.5464 2.8980
   endloop
 endfacet
 facet normal -0.9944 -0.1057 -0.0050
   outer loop
     vertex 2.8898 0.5464 2.8980
     vertex 2.9187 0.5464 -2.8690
     vertex 2.9705 0.0616 -2.9205
   endloop
 endfacet
 facet normal -0.8249 -0.5653 -0.0040
   outer loop
     vertex 3.0251 -0.0186 -2.9747
     vertex 2.9963 -0.0186 3.0035
     vertex 2.9416 0.0616 2.9494
   endloop
 endfacet
 facet normal -0.8279 -0.5609 -0.0041
   outer loop
     vertex 2.9416 0.0616 2.9494
     vertex 2.9705 0.0616 -2.9205
     vertex 3.0251 -0.0186 -2.9747
   endloop
 endfacet
 facet normal 0.2479 -0.9688 0.0012
   outer loop
     vertex 3.0356 -0.0159 -2.9851
     vertex 3.0068 -0.0159 3.0139
     vertex 2.9963 -0.0186 3.0035
   endloop
 endfacet
 facet normal 0.2502 -0.9682 0.0012
   outer loop
     vertex 2.9963 -0.0186 3.0035
     vertex 3.0251 -0.0186 -2.9747
     vertex 3.0356 -0.0159 -2.9851
   endloop
 endfacet
 facet normal 0.9856 -0.1692 0.0046
   outer loop
     vertex 3.1316 0.5464 -3.0804
     vertex 3.1029 0.5464 3.1091
     vertex 3.0068 -0.0159 3.0139
   endloop
 endfacet
 facet normal 0.9859 -0.1675 0.0047
   outer loop
     vertex 3.0068 -0.0159 3.0139
     vertex 3.0356 -0.0159 -2.9851
     vertex 3.1316 0.5464 -3.0804
   endloop
 endfacet
 facet normal 0.9943 0.1069 0.0047
   outer loop
     vertex 3.0798 1.0312 -3.0290
     vertex 3.0510 1.0312 3.0577
     vertex 3.1029 0.5464 3.1091
   endloop
 endfacet
 facet normal 0.9944 0.1058 0.0046
   outer loop
     vertex 3.1029 0.5464 3.1091
     vertex 3.1316 0.5464 -3.0804
     vertex 3.0798 1.0312 -3.0290
   endloop
 endfacet
 facet normal 0.8249 0.5653 0.0040
   outer loop
     vertex 3.0251 1.1114 -2.9747
     vertex 2.9963 1.1114 3.0035
     vertex 3.0510 1.0312 3.0577
   endloop
 endfacet
 facet normal 0.8274 0.5616 0.0039
   outer loop
     vertex 3.0510 1.0312 3.0577
     vertex 3.0798 1.0312 -3.0290
     vertex 3.0251 1.1114 -2.9747
   endloop
 endfacet
 facet normal -0.0022 0.9836 -0.1806
   outer loop
     vertex 2.9859 1.1087 2.9932
     vertex 1.0082 1.1087 3.0176
     vertex 1.0084 1.1114 3.0323
   endloop
 endfacet
 facet normal -0.0036 0.9682 -0.2501
   outer loop
     vertex 1.0084 1.1114 3.0323
     vertex 2.9963 1.1114 3.0035
     vertex 2.9859 1.1087 2.9932
   endloop
 endfacet
 facet normal 0.0081 0.2337 -0.9723
   outer loop
     vertex 2.8898 0.5464 2.8980
     vertex 1.0062 0.5464 2.8824
     vertex 1.0082 1.1087 3.0176
   endloop
 endfacet
 facet normal -0.0122 0.1689 -0.9856
   outer loop
     vertex 1.0082 1.1087 3.0176
     vertex 2.9859 1.1087 2.9932
     vertex 2.8898 0.5464 2.8980
   endloop
 endfacet
 facet normal -0.0031 -0.1489 -0.9888
   outer loop
     vertex 2.9416 0.0616 2.9494
     vertex 1.0073 0.0616 2.9554
     vertex 1.0062 0.5464 2.8824
   endloop
 endfacet
 facet normal 0.0082 -0.1046 -0.9945
   outer loop
     vertex 1.0062 0.5464 2.8824
     vertex 2.8898 0.5464 2.8980
     vertex 2.9416 0.0616 2.9494
   endloop
 endfacet
 facet normal -0.0105 -0.6921 -0.7217
   outer loop
     vertex 2.9963 -0.0186 3.0035
     vertex 1.0084 -0.0186 3.0323
     vertex 1.0073 0.0616 2.9554
   endloop
 endfacet
 facet normal -0.0026 -0.5604 -0.8282
   outer loop
     vertex 1.0073 0.0616 2.9554
     vertex 2.9416 0.0616 2.9494
     vertex 2.9963 -0.0186 3.0035
   endloop
 endfacet
 facet normal 0.0030 -0.9838 0.1794
   outer loop
     vertex 3.0068 -0.0159 3.0139
     vertex 1.0086 -0.0159 3.0471
     vertex 1.0084 -0.0186 3.0323
   endloop
 endfacet
 facet normal 0.0036 -0.9688 0.2479
   outer loop
     vertex 1.0084 -0.0186 3.0323
     vertex 2.9963 -0.0186 3.0035
     vertex 3.0068 -0.0159 3.0139
   endloop
 endfacet
 facet normal 0.0340 -0.2338 0.9717
   outer loop
     vertex 3.1029 0.5464 3.1091
     vertex 1.0106 0.5464 3.1823
     vertex 1.0086 -0.0159 3.0471
   endloop
 endfacet
 facet normal 0.0164 -0.1696 0.9854
   outer loop
     vertex 1.0086 -0.0159 3.0471
     vertex 3.0068 -0.0159 3.0139
     vertex 3.1029 0.5464 3.1091
   endloop
 endfacet
 facet normal 0.0250 0.1489 0.9885
   outer loop
     vertex 3.0510 1.0312 3.0577
     vertex 1.0095 1.0312 3.1093
     vertex 1.0106 0.5464 3.1823
   endloop
 endfacet
 facet normal 0.0348 0.1090 0.9934
   outer loop
     vertex 1.0106 0.5464 3.1823
     vertex 3.1029 0.5464 3.1091
     vertex 3.0510 1.0312 3.0577
   endloop
 endfacet
 facet normal 0.0104 0.6926 0.7212
   outer loop
     vertex 2.9963 1.1114 3.0035
     vertex 1.0084 1.1114 3.0323
     vertex 1.0095 1.0312 3.1093
   endloop
 endfacet
 facet normal 0.0208 0.5695 0.8217
   outer loop
     vertex 1.0095 1.0312 3.1093
     vertex 3.0510 1.0312 3.0577
     vertex 2.9963 1.1114 3.0035
   endloop
 endfacet
 facet normal 1.0000 -0.0000 0.0000
   outer loop
     vertex 0.0144 -0.0186 3.0179
     vertex 0.0144 0.0616 2.9409
     vertex 0.0144 -0.0159 3.0327
   endloop
 endfacet
 facet normal -0.0070 -0.0008 -1.0000
   outer loop
     vertex -3.0110 -0.0159 1.0157
     vertex -2.9193 0.0616 1.0150
     vertex -2.9963 -0.0186 1.0156
   endloop
 endfacet
 facet normal 1.0000 -0.0000 -0.0000
   outer loop
     vertex 0.0144 0.0616 2.9409
     vertex 0.0144 0.5464 2.8679
     vertex 0.0144 -0.0159 3.0327
   endloop
 endfacet
 facet normal -0.0077 0.0001 -1.0000
   outer loop
     vertex -3.0110 -0.0159 1.0157
     vertex -2.8463 0.5464 1.0145
     vertex -2.9193 0.0616 1.0150
   endloop
 endfacet
 facet normal 1.0000 0.0000 -0.0000
   outer loop
     vertex 0.0144 0.5464 2.8679
     vertex 0.0144 0.5464 3.1679
     vertex 0.0144 -0.0159 3.0327
   endloop
 endfacet
 facet normal -0.0073 0.0000 -1.0000
   outer loop
     vertex -3.0110 -0.0159 1.0157
     vertex -3.1463 0.5464 1.0167
     vertex -2.8463 0.5464 1.0145
   endloop
 endfacet
 facet normal 1.0000 0.0000 0.0000
   outer loop
     vertex 0.0144 0.5464 2.8679
     vertex 0.0144 1.0312 3.0949
     vertex 0.0144 0.5464 3.1679
   endloop
 endfacet
 facet normal -0.0073 -0.0001 -1.0000
   outer loop
     vertex -3.1463 0.5464 1.0167
     vertex -3.0733 1.0312 1.0161
     vertex -2.8463 0.5464 1.0145
   endloop
 endfacet
 facet normal 1.0000 0.0000 0.0000
   outer loop
     vertex 0.0144 0.5464 2.8679
     vertex 0.0144 1.1087 3.0032
     vertex 0.0144 1.0312 3.0949
   endloop
 endfacet
 facet normal -0.0067 0.0002 -1.0000
   outer loop
     vertex -3.0733 1.0312 1.0161
     vertex -2.9816 1.1087 1.0155
     vertex -2.8463 0.5464 1.0145
   endloop
 endfacet
 facet normal 1.0000 0.0000 -0.0000
   outer loop
     vertex 0.0144 1.1087 3.0032
     vertex 0.0144 1.1114 3.0179
     vertex 0.0144 1.0312 3.0949
   endloop
 endfacet
 facet normal -0.0068 0.0003 -1.0000
   outer loop
     vertex -3.0733 1.0312 1.0161
     vertex -2.9963 1.1114 1.0156
     vertex -2.9816 1.1087 1.0155
   endloop
 endfacet
 facet normal -0.0004 0.9678 -0.2516
   outer loop
     vertex 0.0144 1.1087 3.0032
     vertex -2.9716 1.1087 3.0075
     vertex -2.9819 1.1114 3.0179
   endloop
 endfacet
 facet normal 0.0000 0.9835 -0.1807
   outer loop
     vertex -2.9819 1.1114 3.0179
     vertex 0.0144 1.1114 3.0179
     vertex 0.0144 1.1087 3.0032
   endloop
 endfacet
 facet normal -0.0149 0.1658 -0.9860
   outer loop
     vertex 0.0144 0.5464 2.8679
     vertex -2.8762 0.5464 2.9115
     vertex -2.9716 1.1087 3.0075
   endloop
 endfacet
 facet normal -0.0014 0.2339 -0.9722
   outer loop
     vertex -2.9716 1.1087 3.0075
     vertex 0.0144 1.1087 3.0032
     vertex 0.0144 0.5464 2.8679
   endloop
 endfacet
 facet normal -0.0076 -0.1054 -0.9944
   outer loop
     vertex 0.0144 0.0616 2.9409
     vertex -2.9277 0.0616 2.9633
     vertex -2.8762 0.5464 2.9115
   endloop
 endfacet
 facet normal -0.0149 -0.1489 -0.9887
   outer loop
     vertex -2.8762 0.5464 2.9115
     vertex 0.0144 0.5464 2.8679
     vertex 0.0144 0.0616 2.9409
   endloop
 endfacet
 facet normal -0.0000 -0.5628 -0.8266
   outer loop
     vertex 0.0144 -0.0186 3.0179
     vertex -2.9819 -0.0186 3.0179
     vertex -2.9277 0.0616 2.9633
   endloop
 endfacet
 facet normal -0.0055 -0.6926 -0.7213
   outer loop
     vertex -2.9277 0.0616 2.9633
     vertex 0.0144 0.0616 2.9409
     vertex 0.0144 -0.0186 3.0179
   endloop
 endfacet
 facet normal -0.0004 -0.9686 0.2487
   outer loop
     vertex 0.0144 -0.0159 3.0327
     vertex -2.9923 -0.0159 3.0284
     vertex -2.9819 -0.0186 3.0179
   endloop
 endfacet
 facet normal 0.0000 -0.9838 0.1795
   outer loop
     vertex -2.9819 -0.0186 3.0179
     vertex 0.0144 -0.0186 3.0179
     vertex 0.0144 -0.0159 3.0327
   endloop
 endfacet
 facet normal -0.0138 -0.1706 0.9853
   outer loop
     vertex 0.0144 0.5464 3.1679
     vertex -3.0876 0.5464 3.1244
     vertex -2.9923 -0.0159 3.0284
   endloop
 endfacet
 facet normal -0.0014 -0.2338 0.9723
   outer loop
     vertex -2.9923 -0.0159 3.0284
     vertex 0.0144 -0.0159 3.0327
     vertex 0.0144 0.5464 3.1679
   endloop
 endfacet
 facet normal -0.0073 0.1070 0.9942
   outer loop
     vertex 0.0144 1.0312 3.0949
     vertex -3.0362 1.0312 3.0726
     vertex -3.0876 0.5464 3.1244
   endloop
 endfacet
 facet normal -0.0139 0.1489 0.9888
   outer loop
     vertex -3.0876 0.5464 3.1244
     vertex 0.0144 0.5464 3.1679
     vertex 0.0144 1.0312 3.0949
   endloop
 endfacet
 facet normal 0.0000 0.5635 0.8261
   outer loop
     vertex 0.0144 1.1114 3.0179
     vertex -2.9819 1.1114 3.0179
     vertex -3.0362 1.0312 3.0726
   endloop
 endfacet
 facet normal -0.0053 0.6926 0.7213
   outer loop
     vertex -3.0362 1.0312 3.0726
     vertex 0.0144 1.0312 3.0949
     vertex 0.0144 1.1114 3.0179
   endloop
 endfacet
 facet normal 0.1806 0.9835 -0.0009
   outer loop
     vertex -2.9716 1.1087 3.0075
     vertex -2.9816 1.1087 1.0155
     vertex -2.9963 1.1114 1.0156
   endloop
 endfacet
 facet normal 0.2519 0.9678 -0.0018
   outer loop
     vertex -2.9963 1.1114 1.0156
     vertex -2.9819 1.1114 3.0179
     vertex -2.9716 1.1087 3.0075
   endloop
 endfacet
 facet normal 0.9721 0.2339 0.0153
   outer loop
     vertex -2.8762 0.5464 2.9115
     vertex -2.8463 0.5464 1.0145
     vertex -2.9816 1.1087 1.0155
   endloop
 endfacet
 facet normal 0.9858 0.1681 -0.0049
   outer loop
     vertex -2.9816 1.1087 1.0155
     vertex -2.9716 1.1087 3.0075
     vertex -2.8762 0.5464 2.9115
   endloop
 endfacet
 facet normal 0.9888 -0.1489 0.0043
   outer loop
     vertex -2.9277 0.0616 2.9633
     vertex -2.9193 0.0616 1.0150
     vertex -2.8463 0.5464 1.0145
   endloop
 endfacet
 facet normal 0.9945 -0.1040 0.0157
   outer loop
     vertex -2.8463 0.5464 1.0145
     vertex -2.8762 0.5464 2.9115
     vertex -2.9277 0.0616 2.9633
   endloop
 endfacet
 facet normal 0.7213 -0.6926 -0.0052
   outer loop
     vertex -2.9819 -0.0186 3.0179
     vertex -2.9963 -0.0186 1.0156
     vertex -2.9193 0.0616 1.0150
   endloop
 endfacet
 facet normal 0.8297 -0.5583 0.0036
   outer loop
     vertex -2.9193 0.0616 1.0150
     vertex -2.9277 0.0616 2.9633
     vertex -2.9819 -0.0186 3.0179
   endloop
 endfacet
 facet normal -0.1806 -0.9835 0.0017
   outer loop
     vertex -2.9923 -0.0159 3.0284
     vertex -3.0110 -0.0159 1.0157
     vertex -2.9963 -0.0186 1.0156
   endloop
 endfacet
 facet normal -0.2496 -0.9684 0.0018
   outer loop
     vertex -2.9963 -0.0186 1.0156
     vertex -2.9819 -0.0186 3.0179
     vertex -2.9923 -0.0159 3.0284
   endloop
 endfacet
 facet normal -0.9719 -0.2339 0.0271
   outer loop
     vertex -3.0876 0.5464 3.1244
     vertex -3.1463 0.5464 1.0167
     vertex -3.0110 -0.0159 1.0157
   endloop
 endfacet
 facet normal -0.9856 -0.1686 0.0092
   outer loop
     vertex -3.0110 -0.0159 1.0157
     vertex -2.9923 -0.0159 3.0284
     vertex -3.0876 0.5464 3.1244
   endloop
 endfacet
 facet normal -0.9887 0.1489 0.0178
   outer loop
     vertex -3.0362 1.0312 3.0726
     vertex -3.0733 1.0312 1.0161
     vertex -3.1463 0.5464 1.0167
   endloop
 endfacet
 facet normal -0.9937 0.1083 0.0277
   outer loop
     vertex -3.1463 0.5464 1.0167
     vertex -3.0876 0.5464 3.1244
     vertex -3.0362 1.0312 3.0726
   endloop
 endfacet
 facet normal -0.7213 0.6926 0.0052
   outer loop
     vertex -2.9819 1.1114 3.0179
     vertex -2.9963 1.1114 1.0156
     vertex -3.0733 1.0312 1.0161
   endloop
 endfacet
 facet normal -0.8232 0.5675 0.0149
   outer loop
     vertex -3.0733 1.0312 1.0161
     vertex -3.0362 1.0312 3.0726
     vertex -2.9819 1.1114 3.0179
   endloop
 endfacet
endsolid
